PathFileType	4	(X/Y/Z)	C:/Git/opensim_tutorial/tutorials/repeated_sprinting/Simulations/PC013/markers.trc	
DataRate	CameraRate	NumFrames	NumMarkers	Units	OrigDataRate	OrigDataStartFrame	OrigNumFrames	
100.00	100.00	6	49	mm	100.00	2825	302	
Frame#	Time	RASIS			LASIS			RPSIS			LPSIS			RTH1			RTH2			RTH3			RTH4			LTH1			LTH2			LTH3			LTH4			RLK			LLK			RSK1			RSK2			RSK3			RSK4			LSK1			LSK2			LSK3			LSK4			RLA			RMA			RHEE			RPCA			RLCA			RSTL			RP1MT			RD1MT			RP5MT			RD5MT			RTOE			RHLX			LLA			LMA			LHEE			LPCA			LLCA			LSTL			LP1MT			LP5MT			LD5MT			LTOE			RAC			LAC			C7			STRN1			STRN2			
		X1	Y1	Z1	X2	Y2	Z2	X3	Y3	Z3	X4	Y4	Z4	X5	Y5	Z5	X6	Y6	Z6	X7	Y7	Z7	X8	Y8	Z8	X9	Y9	Z9	X10	Y10	Z10	X11	Y11	Z11	X12	Y12	Z12	X13	Y13	Z13	X14	Y14	Z14	X15	Y15	Z15	X16	Y16	Z16	X17	Y17	Z17	X18	Y18	Z18	X19	Y19	Z19	X20	Y20	Z20	X21	Y21	Z21	X22	Y22	Z22	X23	Y23	Z23	X24	Y24	Z24	X25	Y25	Z25	X26	Y26	Z26	X27	Y27	Z27	X28	Y28	Z28	X29	Y29	Z29	X30	Y30	Z30	X31	Y31	Z31	X32	Y32	Z32	X33	Y33	Z33	X34	Y34	Z34	X35	Y35	Z35	X36	Y36	Z36	X37	Y37	Z37	X38	Y38	Z38	X39	Y39	Z39	X40	Y40	Z40	X41	Y41	Z41	X42	Y42	Z42	X43	Y43	Z43	X44	Y44	Z44	X45	Y45	Z45	X46	Y46	Z46	X47	Y47	Z47	X48	Y48	Z48	X49	Y49	Z49	

38	0.370	616.92847	130.26613	813.03827	619.54492	-86.85474	805.13055	795.07312	77.42912	834.97260	797.09064	-22.95954	835.30676	568.62048	182.15215	587.89496	538.21155	167.96130	536.51910	484.84100	155.94925	535.28674	505.30615	151.89325	596.27631	639.42285	-118.20484	545.43323	620.72577	-99.83184	470.03680	580.62329	-96.33110	513.32538	594.20544	-108.20578	568.66766	423.74667	130.73293	431.31290	570.33691	-70.32658	344.67175	544.94214	180.08870	244.79982	473.31171	177.08475	234.27167	518.48389	191.67088	215.72795	532.71771	195.17229	179.12654	717.93524	-96.28363	196.09105	682.28839	-86.56895	210.82475	677.18237	-97.67361	249.26100	705.90784	-94.01804	277.68393	551.80707	213.75073	79.65574	524.60065	136.14671	58.00856	614.91736	177.54871	34.19181	596.13647	172.30310	71.53216	579.59802	214.04207	45.50305	577.06854	145.22748	27.97482	473.98264	154.50134	47.34290	434.58691	156.20482	28.42487	518.32489	237.90337	34.04430	470.25626	254.45126	31.78744	444.71924	207.34822	57.38994	402.82709	164.43871	29.85309	871.75098	-110.28394	96.85272	837.54401	-41.96763	51.92393	928.31830	-53.13576	87.82158	899.50531	-52.92234	107.52785	914.93213	-98.46397	83.67529	897.84003	-35.08692	62.88908	797.69714	-76.34592	44.47139	868.93329	-150.06717	36.04654	830.60211	-180.65181	20.98229	784.89685	-131.71725	53.88205	676.87427	185.59225	1251.86597	689.75421	-150.58769	1287.64587	704.99121	29.22426	1321.32678	568.62317	23.34798	1244.03516	551.56067	11.26390	1191.43945 
39	0.380	607.96625	132.42155	809.73358	612.69153	-85.02631	802.85150	786.60333	81.45792	832.57654	789.21356	-18.95968	833.31281	559.71710	181.64330	583.68616	530.09528	166.87239	531.93304	476.96921	153.38412	530.01990	497.09662	149.57635	591.07458	633.22162	-117.04311	543.29816	614.92377	-99.16628	467.58752	574.69653	-95.57519	510.60696	588.59229	-107.05044	566.01392	418.18854	127.80440	425.00363	565.60236	-70.56912	341.68585	543.58459	178.81847	241.01534	472.24170	174.98128	228.76329	517.72894	190.29811	211.53210	532.97021	194.02505	175.27808	715.36328	-95.93607	195.17250	679.51416	-86.38994	209.45277	673.93091	-97.44221	247.70682	702.24091	-93.38101	276.37390	554.90009	214.02960	77.22128	528.51276	135.48581	54.83565	618.49207	177.80191	32.37712	599.28589	172.19572	69.17588	583.83545	214.59515	43.66722	581.24127	145.85379	25.94849	477.13123	153.51117	45.63722	437.94119	155.70883	25.49069	521.35242	239.35472	31.86264	471.97794	255.23141	30.83778	447.93384	207.43459	56.18024	405.11871	163.98155	26.69621	870.65143	-109.00117	98.61259	836.30469	-41.15339	52.72624	926.59479	-51.09109	89.75961	897.62231	-51.16499	109.12247	913.89575	-96.70426	85.59101	896.17139	-33.54139	64.42992	796.80255	-75.90885	44.65516	868.72064	-148.81270	37.36198	831.03577	-179.51924	21.79929	784.32379	-131.20076	53.92571	670.01233	189.80717	1248.76135	685.82654	-146.28777	1285.52063	699.24860	33.64362	1318.75269	562.88586	26.49817	1242.76270	545.33301	14.44979	1190.11035 
40	0.390	599.43378	134.68280	806.10229	604.73608	-81.79248	799.83234	778.37585	85.69427	830.41156	781.38605	-15.00384	831.48376	550.91364	180.59676	579.27802	522.20990	165.35858	527.27246	469.41742	150.85419	524.81720	488.88593	147.26164	586.10010	627.07239	-115.65083	540.96246	609.08887	-98.52891	464.98590	568.63428	-94.81145	507.89975	582.30145	-105.79369	563.34161	412.91528	124.38773	418.50125	560.69446	-71.01450	338.91339	544.90118	176.31870	240.07129	473.56747	174.40245	226.50323	519.79395	188.88074	210.29265	535.58435	192.80301	174.32130	712.88751	-95.84711	194.57603	676.48145	-86.18980	207.99094	670.50568	-97.24127	246.36079	698.24341	-92.81886	275.47183	559.59863	215.34380	78.04185	534.75952	135.45958	53.88483	621.47620	180.76872	30.94852	602.74835	174.53410	68.53543	586.62537	216.77386	43.10471	585.94580	147.83374	26.43549	482.62427	153.29549	45.46778	441.91162	154.48447	24.99778	524.67468	240.66832	30.68870	474.44333	254.85481	31.27990	453.07297	205.28755	56.75121	409.45639	162.39157	22.91605	869.26971	-107.59891	100.19671	834.75964	-40.27112	53.74258	924.63049	-49.23577	92.06216	895.34161	-49.40660	111.14275	912.60883	-94.99953	87.92039	894.48456	-32.04072	66.36346	795.73712	-75.39450	45.12308	868.56647	-147.67252	39.01563	831.41846	-178.41078	22.55155	783.60852	-130.76341	54.25932	663.12671	194.24034	1245.75232	681.91711	-141.89450	1283.20569	693.53888	38.28130	1316.17493	556.63507	30.40829	1240.87671	538.95428	17.86176	1188.64612 
41	0.400	591.28589	137.51523	802.23718	598.15002	-79.38149	797.28534	770.19946	89.71603	828.75610	773.71002	-11.20041	829.80090	542.82794	178.96886	574.65491	514.86450	162.80103	522.37408	461.83774	147.54434	519.38110	481.09277	144.97110	581.10211	620.90228	-114.36092	538.69623	603.41254	-97.78929	462.45993	562.75146	-93.86366	505.18057	576.03009	-104.46163	560.77588	407.42184	120.26929	413.12338	555.61145	-71.43581	336.10446	545.90869	171.57268	239.29956	474.36047	176.00920	227.22646	521.34015	187.30504	210.54254	536.56653	191.49995	174.36710	710.02185	-95.57513	194.22845	673.31946	-86.19886	207.13530	666.78473	-96.96526	245.41518	694.24634	-92.25821	274.88208	558.70380	216.21725	77.22650	537.53125	136.41769	53.59883	621.32159	183.46794	31.35883	602.42377	177.07722	68.72637	586.07617	219.12820	42.57904	586.53333	149.52316	26.74425	484.38809	154.14034	45.77594	442.32217	155.01317	25.17924	524.18109	242.65802	30.44448	473.97281	255.96693	30.59446	454.82980	206.49445	57.55605	409.42941	162.53833	23.43833	867.59387	-106.37571	102.42777	833.28101	-39.55636	54.91755	922.48700	-47.34293	94.78947	892.93939	-47.90653	113.57580	911.33923	-93.69979	91.43681	892.61993	-30.68551	68.70819	794.70190	-75.10399	45.67989	868.20764	-146.54329	40.97814	831.75293	-177.32037	23.63200	782.84082	-130.42499	54.69009	656.22772	198.56776	1242.66736	677.97791	-137.42105	1280.62500	687.60175	42.91176	1313.62305	550.65900	34.18311	1239.46338	532.43616	21.35505	1187.30713 
42	0.410	583.26965	140.41916	798.62708	591.12708	-76.25156	794.53381	762.46881	93.81834	827.42175	766.41638	-7.68779	828.44312	535.08234	177.29779	570.31183	507.82098	159.80687	518.12341	455.04947	143.78464	515.11945	473.76941	142.44202	576.84753	614.73248	-113.07857	536.53418	597.67712	-97.26511	460.16962	556.56476	-92.84872	502.72253	569.74756	-103.01260	558.51605	401.62061	115.26715	410.05026	550.23944	-71.56490	333.50076	542.75507	169.09517	238.96387	471.06107	174.92462	227.81731	518.06824	185.88643	210.95197	532.82813	190.93349	174.53293	706.94879	-95.21206	194.42017	669.96790	-86.07577	206.67470	663.01099	-96.92052	244.89952	689.87988	-91.79307	274.78705	553.99084	217.18500	76.97993	533.49731	137.13742	53.53719	619.99066	185.47060	33.23665	600.17206	178.81451	69.88859	583.69238	220.61168	43.90731	585.53027	150.90324	27.43941	481.22803	154.95239	46.43694	440.89194	154.95657	26.80090	522.13409	243.30251	30.47985	472.11401	256.84595	29.79475	451.04077	207.83618	56.57556	408.01407	162.86195	25.29326	865.81061	-104.98700	104.55659	831.60272	-38.81297	56.66970	920.30164	-45.69312	98.26735	890.46942	-46.64984	116.67237	909.82703	-92.16266	94.58170	890.52966	-29.33879	71.40188	793.46582	-74.91465	46.54275	867.96167	-145.24850	43.68119	832.08313	-176.29845	24.97907	782.05170	-130.09590	55.29357	649.12140	203.20004	1239.69043	674.03198	-132.77403	1278.25684	681.41876	47.96561	1311.19727	544.11743	38.28603	1237.61658	525.66919	25.11784	1185.84155 
43	0.420	575.47858	143.63835	795.79254	583.31128	-72.14454	791.67200	755.13080	97.38596	826.32806	759.22992	-4.17114	827.36920	528.26672	176.30139	567.09210	501.14282	157.36342	515.40784	448.56888	140.59660	512.73090	467.39499	140.73410	574.44006	608.55896	-111.61479	534.88013	591.71161	-96.50161	458.23950	550.51575	-91.62689	500.76096	563.53918	-101.35930	556.59900	395.40500	109.75111	409.23752	544.96826	-71.72771	331.57706	537.02948	169.46954	239.37376	465.59262	171.06721	227.19897	512.00165	184.70012	210.86946	527.18225	190.32771	174.91525	703.61609	-94.88922	195.03226	666.27197	-85.97819	206.74249	658.94031	-96.59688	244.96944	685.35541	-91.27078	275.13760	551.52545	216.08949	77.89201	531.63446	136.52884	52.91236	618.93616	185.56299	34.63574	598.48181	178.10268	70.59223	581.99823	219.81700	44.72984	584.67267	150.81935	27.42718	480.21729	153.21933	44.86260	439.71060	153.82289	25.23972	520.75854	242.12776	31.40223	470.83987	255.68030	30.68130	449.22006	206.10413	56.53019	407.12460	161.97652	23.82545	863.84845	-103.77576	107.56680	829.76434	-37.94984	58.77332	917.67413	-43.48285	101.68864	887.63519	-45.06958	119.59973	907.33844	-89.89865	97.46536	888.35828	-27.48026	74.57977	792.31305	-74.42721	47.85148	867.39685	-143.85042	46.40145	832.30634	-175.35754	26.66564	781.19159	-129.65298	56.09037	642.02667	207.75160	1236.88574	669.77991	-128.10446	1275.79700	674.97736	52.66144	1309.27466	537.70795	42.16545	1236.56604	518.73779	28.87586	1184.54895 
